<svg width="182" height="182" viewBox="0 0 182 182" fill="none" xmlns="http://www.w3.org/2000/svg">
<mask id="path-1-inside-1_45_1496" fill="white">
<path d="M34.9741 162.708C46.2905 171.55 59.5387 177.588 73.6355 180.328C87.7324 183.068 102.278 182.433 116.082 178.475C129.887 174.517 142.558 167.348 153.061 157.554C163.564 147.76 171.6 135.619 176.512 122.125C181.424 108.63 183.072 94.1645 181.322 79.9107C179.572 65.657 174.473 52.0198 166.443 40.1142C158.413 28.2085 147.679 18.3724 135.118 11.41C122.558 4.44768 108.529 0.556784 94.1767 0.0554648L91 91L34.9741 162.708Z"/>
</mask>
<path d="M34.9741 162.708C46.2905 171.55 59.5387 177.588 73.6355 180.328C87.7324 183.068 102.278 182.433 116.082 178.475C129.887 174.517 142.558 167.348 153.061 157.554C163.564 147.76 171.6 135.619 176.512 122.125C181.424 108.63 183.072 94.1645 181.322 79.9107C179.572 65.657 174.473 52.0198 166.443 40.1142C158.413 28.2085 147.679 18.3724 135.118 11.41C122.558 4.44768 108.529 0.556784 94.1767 0.0554648L91 91L34.9741 162.708Z" fill="#71A901" stroke="white" stroke-width="10" mask="url(#path-1-inside-1_45_1496)"/>
<mask id="path-2-inside-2_45_1496" fill="white">
<path d="M94.0324 0.0505371C69.9111 -0.753693 46.4582 8.05716 28.8332 24.5448C11.2082 41.0325 0.854778 63.8463 0.0505382 87.9676L91 91L94.0324 0.0505371Z"/>
</mask>
<path d="M94.0324 0.0505371C69.9111 -0.753693 46.4582 8.05716 28.8332 24.5448C11.2082 41.0325 0.854778 63.8463 0.0505382 87.9676L91 91L94.0324 0.0505371Z" fill="#71A901" stroke="white" stroke-width="10" mask="url(#path-2-inside-2_45_1496)"/>
<mask id="path-3-inside-3_45_1496" fill="white">
<path d="M0.0616136 87.6519C-0.466754 102.003 2.40884 116.275 8.45329 129.302C14.4977 142.329 23.5394 153.74 34.8391 162.603L91 91L0.0616136 87.6519Z"/>
</mask>
<path d="M0.0616136 87.6519C-0.466754 102.003 2.40884 116.275 8.45329 129.302C14.4977 142.329 23.5394 153.74 34.8391 162.603L91 91L0.0616136 87.6519Z" fill="#71A901" stroke="white" stroke-width="10" mask="url(#path-3-inside-3_45_1496)"/>
</svg>
