<svg width="23" height="24" viewBox="0 0 23 24" fill="none" xmlns="http://www.w3.org/2000/svg">
<path d="M17.1125 4V2.1875C17.1125 0.99375 16.2062 0 14.9562 0H8.63749C7.39374 0 6.48749 0.99375 6.48749 2.1875V4H0.799988V6H1.37499C1.37499 6 1.71249 6.0375 1.88749 6.2125C2.06249 6.3875 2.13124 6.775 2.13124 6.775L3.31874 21.8813C3.41249 23.7188 3.41249 24 5.56874 24H18.0312C20.1875 24 20.1875 23.725 20.2812 21.8875L21.4687 6.7875C21.4687 6.7875 21.5375 6.39375 21.7125 6.21875C21.8875 6.04375 22.225 6.00625 22.225 6.00625H22.8V4.00625H17.1125V4ZM7.79999 2.1875C7.79999 1.5875 8.28749 1.25 8.90624 1.25H14.6375C15.2562 1.25 15.8 1.59375 15.8 2.1875V4H7.79999V2.1875ZM7.26874 20L6.62499 8H7.89374L8.54999 20H7.26874ZM12.4937 20H11.1187V8H12.4937V20ZM16.3437 20H15.0687L15.725 8H16.9937L16.3437 20Z" fill="#71A901"/>
</svg>
