<svg width="18" height="23" viewBox="0 0 18 23" fill="none" xmlns="http://www.w3.org/2000/svg">
<path d="M17.8813 6.44658C17.825 6.31825 17.7563 6.19575 17.6625 6.09075L12.425 0.741585C12.3062 0.619085 12.1625 0.531585 12.0063 0.455752C11.825 0.368252 11.625 0.333252 11.4125 0.333252H1.41875C0.64375 0.333252 0 0.951585 0 1.72742V21.2807C0 22.0624 0.64375 22.7332 1.41875 22.7332H16.6125C17.3875 22.7332 18 22.0624 18 21.2807V7.04158C18 6.83158 17.9688 6.62742 17.8813 6.44658ZM3 6.99492C3 6.90742 3.1125 6.87242 3.2125 6.87242H7.6375C7.7375 6.87242 7.8125 6.90742 7.8125 6.99492V7.62492C7.8125 7.70658 7.74375 7.80575 7.6375 7.80575H3.2125C3.1125 7.80575 3 7.70658 3 7.62492V6.99492ZM3 14.4616C3 14.3741 3.1125 14.3391 3.2125 14.3391H10.85C10.95 14.3391 11 14.3741 11 14.4616V15.0916C11 15.1732 10.9563 15.2724 10.85 15.2724H3.2125C3.1125 15.2724 3 15.1732 3 15.0916V14.4616ZM13 18.8249C13 18.9066 12.9563 19.0057 12.85 19.0057H3.2125C3.1125 19.0057 3 18.9066 3 18.8249V18.1949C3 18.1074 3.1125 18.0724 3.2125 18.0724H12.85C12.95 18.0724 13 18.1074 13 18.1949V18.8249ZM15 11.3582C15 11.4399 14.9563 11.5391 14.85 11.5391H3.2125C3.1125 11.5391 3 11.4399 3 11.3582V10.7283C3 10.6407 3.1125 10.6058 3.2125 10.6058H14.85C14.95 10.6058 15 10.6407 15 10.7283V11.3582ZM12.0688 6.93075C11.7188 6.93075 11.375 6.62742 11.375 6.27158V2.42158L15.825 6.93075H12.0688Z" fill="black"/>
</svg>
