<svg width="7" height="12" viewBox="0 0 7 12" fill="none" xmlns="http://www.w3.org/2000/svg">
<path d="M6.96 7.708C6.96 8.34 6.72 8.876 6.24 9.316C5.768 9.756 5.08 10.012 4.176 10.084V11.44H3.408V10.084C2.824 10.052 2.268 9.944 1.74 9.76C1.22 9.568 0.804 9.328 0.492 9.04L0.936 8.104C1.224 8.368 1.588 8.588 2.028 8.764C2.468 8.932 2.928 9.032 3.408 9.064V6.28C2.848 6.144 2.38 5.996 2.004 5.836C1.636 5.676 1.324 5.44 1.068 5.128C0.82 4.816 0.696 4.408 0.696 3.904C0.696 3.272 0.924 2.736 1.38 2.296C1.844 1.856 2.52 1.6 3.408 1.528V0.159999H4.176V1.516C4.632 1.532 5.072 1.604 5.496 1.732C5.928 1.86 6.3 2.032 6.612 2.248L6.216 3.208C5.568 2.8 4.888 2.576 4.176 2.536V5.332C4.76 5.476 5.24 5.628 5.616 5.788C5.992 5.94 6.308 6.172 6.564 6.484C6.828 6.788 6.96 7.196 6.96 7.708ZM1.872 3.856C1.872 4.2 2.004 4.468 2.268 4.66C2.532 4.852 2.912 5.012 3.408 5.14V2.548C2.896 2.612 2.512 2.764 2.256 3.004C2 3.236 1.872 3.52 1.872 3.856ZM4.176 9.052C4.712 9.004 5.112 8.868 5.376 8.644C5.648 8.412 5.784 8.124 5.784 7.78C5.784 7.428 5.644 7.16 5.364 6.976C5.092 6.784 4.696 6.616 4.176 6.472V9.052Z" fill="black"/>
</svg>
