<svg width="17" height="11" viewBox="0 0 17 11" fill="none" xmlns="http://www.w3.org/2000/svg">
<path d="M8.20508 10.7559C12.8984 10.7559 16.1445 6.95898 16.1445 5.77539C16.1445 4.58594 12.8926 0.794922 8.20508 0.794922C3.57031 0.794922 0.259766 4.58594 0.259766 5.77539C0.259766 6.95898 3.57031 10.7559 8.20508 10.7559ZM8.20508 9.03906C6.37695 9.03906 4.92969 7.55664 4.92383 5.77539C4.91797 3.94727 6.37695 2.51172 8.20508 2.51172C10.0156 2.51172 11.4805 3.94727 11.4805 5.77539C11.4805 7.55664 10.0156 9.03906 8.20508 9.03906ZM8.20508 6.95312C8.85547 6.95312 9.39453 6.41992 9.39453 5.77539C9.39453 5.125 8.85547 4.5918 8.20508 4.5918C7.54883 4.5918 7.00977 5.125 7.00977 5.77539C7.00977 6.41992 7.54883 6.95312 8.20508 6.95312Z" fill="#373737" fill-opacity="0.3"/>
</svg>
