<svg width="22" height="22" viewBox="0 0 22 22" fill="none" xmlns="http://www.w3.org/2000/svg">
<path d="M9.17602 15.125C9.16667 15.1531 9.10821 15.1507 9.00064 15.118C8.89307 15.0852 8.74575 15.0315 8.55867 14.9566L8.27806 14.8304C7.8665 14.6433 7.45961 14.4141 7.0574 14.1429C6.99192 14.0961 6.80017 13.9488 6.48214 13.7009C6.16412 13.453 5.98639 13.3197 5.94898 13.301C5.32228 14.2645 4.69558 15.111 4.06888 15.8406C3.31122 16.7292 2.82015 17.2436 2.59566 17.3839C2.55825 17.4026 2.46705 17.4213 2.32207 17.4401C2.17708 17.4588 2.09056 17.4588 2.0625 17.4401C2.11862 17.4026 2.50213 16.9724 3.21301 16.1492C3.40944 15.9247 3.80931 15.3869 4.41263 14.5357C5.01594 13.6845 5.38308 13.1327 5.51403 12.8801C5.67304 12.5995 5.91156 12.1388 6.22959 11.4981C6.54762 10.8574 6.71599 10.4949 6.73469 10.4107C6.65986 10.4014 6.14541 10.5557 5.19133 10.8737C5.1165 10.8924 4.98788 10.9275 4.80548 10.979C4.62309 11.0304 4.46173 11.0748 4.32143 11.1122C4.18112 11.1497 4.10162 11.173 4.08291 11.1824C4.0642 11.2011 4.05485 11.2502 4.05485 11.3297C4.05485 11.4092 4.05017 11.4537 4.04082 11.463C3.99405 11.5565 3.84906 11.6267 3.60587 11.6735C3.39073 11.7389 3.17092 11.7389 2.94643 11.6735C2.77806 11.6361 2.64711 11.5378 2.55357 11.3788C2.51616 11.3227 2.49277 11.2151 2.48342 11.0561C2.53954 11.0374 2.65412 11.014 2.82717 10.986C3.00021 10.9579 3.13818 10.9298 3.24107 10.9018C3.78359 10.7521 4.27466 10.6025 4.71429 10.4528C5.64966 10.1254 6.1267 9.96173 6.14541 9.96173C6.23895 9.94303 6.44005 9.85183 6.74872 9.68814C7.0574 9.52445 7.26318 9.42389 7.36607 9.38648C7.45026 9.35842 7.55081 9.321 7.66773 9.27423C7.78465 9.22747 7.85247 9.20174 7.87117 9.19707C7.88988 9.19239 7.91794 9.19473 7.95536 9.20408C7.97406 9.31633 7.96939 9.47066 7.94133 9.66709C7.94133 9.6858 7.88287 9.81207 7.76594 10.0459C7.64902 10.2798 7.52509 10.53 7.39413 10.7966C7.26318 11.0631 7.18367 11.2198 7.15561 11.2666C6.92177 11.7343 6.56165 12.3469 6.07526 13.1046L6.97321 13.4974C7.08546 13.5536 7.43389 13.7032 8.0185 13.9464C8.6031 14.1896 8.91879 14.3206 8.96556 14.3393C9.00298 14.3486 9.05208 14.4679 9.11288 14.6971C9.17368 14.9262 9.19473 15.0689 9.17602 15.125ZM6.29975 8.30612C6.32781 8.44643 6.3091 8.57738 6.24362 8.69898C6.13138 8.91412 5.89753 9.09184 5.54209 9.23214C5.26148 9.34439 4.98087 9.40051 4.70026 9.40051C4.45706 9.37245 4.22789 9.25085 4.01276 9.03571C3.8818 8.89541 3.79762 8.70366 3.7602 8.46046L3.77424 8.41837C3.8023 8.44643 3.8935 8.46981 4.04783 8.48852C4.20217 8.50723 4.32611 8.50723 4.41964 8.48852C4.51318 8.46981 4.78444 8.39498 5.23342 8.26403C5.57015 8.15179 5.82738 8.08631 6.0051 8.0676C6.16412 8.0676 6.26233 8.14711 6.29975 8.30612ZM16.0931 10.1161L16.977 13.301L15.0268 12.7117L16.0931 10.1161ZM0.547194 21.3406L10.2844 18.0855V3.60587L0.547194 6.875V21.3406ZM17.9592 16.8929L19.3903 17.3278L16.8508 8.10969L15.4477 7.67474L12.4171 15.1952L13.8482 15.6301L14.4796 14.0867L17.4401 14.9987L17.9592 16.8929ZM10.9018 3.39541L18.9413 5.97704V0.645408L10.9018 3.39541ZM21.551 6.81888V21.9579L10.6913 18.5064C10.5604 18.5625 8.80655 19.1588 5.42985 20.2953C2.05315 21.4318 0.332058 22 0.266582 22C0.144983 22 0.0607993 21.9392 0.0140306 21.8176C0.0140306 21.8082 0.00935374 21.7942 0 21.7755V6.65051C0.0280612 6.56633 0.0467687 6.51956 0.0561225 6.5102C0.102891 6.45408 0.196429 6.40264 0.336735 6.35587C1.32823 6.02849 2.02509 5.79464 2.4273 5.65434V0.266582L10.2564 3.04464C10.2751 3.04464 11.0257 2.78742 12.5083 2.27296C13.9909 1.7585 15.4688 1.25106 16.942 0.750638C18.4152 0.250213 19.1705 0 19.2079 0C19.395 0 19.4885 0.0982143 19.4885 0.294643V6.15944L21.551 6.81888Z" fill="black"/>
</svg>
