<svg width="14" height="18" viewBox="0 0 14 18" fill="none" xmlns="http://www.w3.org/2000/svg">
<path d="M6.92773 17.3906C7.06055 17.3906 7.26807 17.3408 7.47559 17.2329C12.1987 14.7593 13.7178 13.5225 13.7178 10.5425V4.28369C13.7178 3.42871 13.3525 3.15479 12.6553 2.86426C11.6841 2.46582 8.57959 1.33691 7.6167 1.00488C7.39258 0.930176 7.16016 0.888672 6.92773 0.888672C6.69531 0.888672 6.46289 0.938477 6.24707 1.00488C5.27588 1.32031 2.17139 2.47412 1.2002 2.86426C0.51123 3.14648 0.137695 3.42871 0.137695 4.28369V10.5425C0.137695 13.5225 1.73975 14.6182 6.37988 17.2329C6.5957 17.3491 6.79492 17.3906 6.92773 17.3906ZM3.83984 12.103V8.69971C3.83984 8.09375 4.08887 7.79492 4.58691 7.76172V6.75732C4.58691 5.18018 5.5332 4.11768 6.92773 4.11768C8.32227 4.11768 9.26855 5.18018 9.26855 6.75732V7.76172C9.7666 7.79492 10.0156 8.09375 10.0156 8.69971V12.103C10.0156 12.7422 9.7334 13.041 9.14404 13.041H4.71143C4.12207 13.041 3.83984 12.7422 3.83984 12.103ZM5.4834 7.75342H8.37207V6.65771C8.37207 5.65332 7.79102 4.98096 6.92773 4.98096C6.06445 4.98096 5.4834 5.65332 5.4834 6.65771V7.75342Z" fill="#373737" fill-opacity="0.6"/>
</svg>
