<svg width="18" height="14" viewBox="0 0 18 14" fill="none" xmlns="http://www.w3.org/2000/svg">
<path d="M8.96826 7.56885C9.26855 7.56885 9.54688 7.42969 9.86914 7.10742L16.2412 0.80127C15.9702 0.537598 15.4648 0.413086 14.7397 0.413086H2.94775C2.33252 0.413086 1.90039 0.530273 1.65869 0.771973L8.06738 7.10742C8.38232 7.42236 8.66064 7.56885 8.96826 7.56885ZM1.05078 11.8535L6.229 6.73389L1.03613 1.61426C0.92627 1.81934 0.867676 2.1709 0.867676 2.67627V10.7622C0.867676 11.2822 0.92627 11.6484 1.05078 11.8535ZM16.8638 11.8462C16.981 11.6338 17.0396 11.2749 17.0396 10.7622V2.67627C17.0396 2.18555 16.981 1.83398 16.8784 1.63623L11.7002 6.73389L16.8638 11.8462ZM3.16748 13.0327H14.9595C15.5747 13.0327 15.9995 12.9155 16.2412 12.6812L10.9604 7.45166L10.4771 7.94238C9.97168 8.42578 9.49561 8.64551 8.96826 8.64551C8.43359 8.64551 7.95752 8.42578 7.45947 7.94238L6.96875 7.45166L1.70264 12.6738C1.98096 12.9155 2.46436 13.0327 3.16748 13.0327Z" fill="#373737" fill-opacity="0.6"/>
</svg>
