<svg width="26" height="34" viewBox="0 0 26 34" fill="none" xmlns="http://www.w3.org/2000/svg">
<path d="M12.8387 0.150072C12.7848 0.141686 12.7309 0.133301 12.668 0.133301L12.4883 0.150072C5.50742 0.560957 0 5.96955 0 12.5773C0 15.7973 1.29375 18.7238 3.44102 20.9375L4.77969 22.2456C6.79219 24.3168 10.5836 28.5347 12.4883 32.9957C12.5602 33.1383 12.6141 33.2808 12.659 33.4234L12.8387 32.9706C14.7434 28.5263 18.5258 24.3085 20.5383 22.2456L21.877 20.9375C24.0242 18.7322 25.327 15.7973 25.327 12.5773C25.327 5.96955 19.8016 0.552572 12.8387 0.150072ZM12.5242 20.2667C8.29258 20.2667 4.86953 17.0635 4.86953 13.1223C4.86953 9.17278 8.30156 5.97793 12.5242 5.97793C16.7559 5.97793 20.1789 9.18116 20.1789 13.1223C20.1789 17.0635 16.7559 20.2667 12.5242 20.2667Z" fill="#0038FF"/>
<path d="M14.1862 9.42432H10.862V12.485H8.78662L12.5241 16.8034L16.2526 12.485H14.1862V9.42432Z" fill="#0038FF"/>
</svg>
