<svg width="21" height="21" viewBox="0 0 21 21" fill="none" xmlns="http://www.w3.org/2000/svg">
<path d="M20.6468 3.25272L17.6388 6.26066C17.3606 6.53918 16.9764 6.71111 16.5521 6.71111C16.1274 6.71111 15.7423 6.53918 15.464 6.26066L14.739 5.53598C14.4607 5.25747 14.2892 4.87302 14.2892 4.44831C14.2892 4.0236 14.4607 3.63937 14.739 3.36107L17.747 0.353133C15.908 -0.367364 13.7363 0.0144448 12.2503 1.50054C10.2483 3.5022 10.2483 6.74796 12.2503 8.74951C14.2524 10.7516 17.4977 10.7516 19.4992 8.74951C20.9858 7.26364 21.3674 5.09214 20.6468 3.25272Z" fill="black"/>
<path d="M4.50906 12.5278L1.38771 15.4219C0.835954 15.9339 0.485165 16.6608 0.469765 17.4729C0.454365 18.2849 0.777434 19.0243 1.30983 19.5566L1.44392 19.6906C1.97588 20.2227 2.7153 20.546 3.52731 20.5306C4.33977 20.5155 5.06599 20.1647 5.57815 19.6125L8.47224 16.4911L4.50906 12.5278ZM4.37277 18.4395C3.87293 18.9404 3.06136 18.9404 2.56064 18.4395C2.06036 17.9393 2.06036 17.1277 2.56064 16.6274C3.06136 16.1266 3.87293 16.1266 4.37277 16.6274C4.87305 17.1277 4.87305 17.9393 4.37277 18.4395Z" fill="black"/>
</svg>
