<svg width="19" height="20" viewBox="0 0 19 20" fill="none" xmlns="http://www.w3.org/2000/svg">
<path d="M16.9605 15.1281C16.8042 15.1368 16.6565 15.1368 16.5002 15.1368C13.9731 15.1368 11.5936 14.1554 9.8046 12.3665C8.01563 10.5775 7.0343 8.198 7.0343 5.67086C7.0343 4.22927 7.35562 2.83977 7.95484 1.58055C8.22405 1.02475 8.54537 0.495006 8.9188 0C8.25879 0.0694746 7.62484 0.208423 7.00825 0.399478C2.94399 1.68476 0 5.47981 0 9.9696C0 15.5102 4.48979 20 10.0304 20C13.096 20 15.8315 18.6279 17.6726 16.4655C18.0894 15.9705 18.4716 15.432 18.7842 14.8589C18.1937 15.0065 17.5858 15.102 16.9605 15.1281Z" fill="black"/>
</svg>
