<svg width="6" height="22" viewBox="0 0 6 22" fill="none" xmlns="http://www.w3.org/2000/svg">
<path d="M2.75 13.75C2.02065 13.75 1.32118 13.4603 0.805457 12.9445C0.289732 12.4288 0 11.7293 0 11C0 10.2707 0.289732 9.57118 0.805457 9.05546C1.32118 8.53973 2.02065 8.25 2.75 8.25C3.47935 8.25 4.17882 8.53973 4.69454 9.05546C5.21027 9.57118 5.5 10.2707 5.5 11C5.5 11.7293 5.21027 12.4288 4.69454 12.9445C4.17882 13.4603 3.47935 13.75 2.75 13.75ZM2.75 5.5C2.02065 5.5 1.32118 5.21027 0.805457 4.69454C0.289732 4.17882 0 3.47935 0 2.75C0 2.02065 0.289732 1.32118 0.805457 0.805456C1.32118 0.289731 2.02065 0 2.75 0C3.47935 0 4.17882 0.289731 4.69454 0.805456C5.21027 1.32118 5.5 2.02065 5.5 2.75C5.5 3.47935 5.21027 4.17882 4.69454 4.69454C4.17882 5.21027 3.47935 5.5 2.75 5.5ZM2.75 22C2.02065 22 1.32118 21.7103 0.805457 21.1945C0.289732 20.6788 0 19.9793 0 19.25C0 18.5207 0.289732 17.8212 0.805457 17.3055C1.32118 16.7897 2.02065 16.5 2.75 16.5C3.47935 16.5 4.17882 16.7897 4.69454 17.3055C5.21027 17.8212 5.5 18.5207 5.5 19.25C5.5 19.9793 5.21027 20.6788 4.69454 21.1945C4.17882 21.7103 3.47935 22 2.75 22Z" fill="black"/>
</svg>
