<svg width="18" height="20" viewBox="0 0 18 20" fill="none" xmlns="http://www.w3.org/2000/svg">
<path d="M6.65405 1.99775C6.65405 2.33048 6.74453 2.64154 6.89091 2.91916C7.45603 2.76227 8.04823 2.67184 8.66211 2.67184C9.26897 2.67184 9.85425 2.76049 10.4138 2.91386C10.5584 2.63744 10.6481 2.32844 10.6481 1.99768C10.648 0.901583 9.74779 -2.51831e-05 8.6517 5.2766e-10C7.55562 5.03678e-05 6.65407 0.90166 6.65405 1.99775Z" fill="black"/>
<path d="M8.66204 3.34082C5.3513 3.34082 2.66518 6.02567 2.66518 9.33639C2.66518 11.0636 2.65735 13.1858 1.8479 15.3476H15.4801C14.6706 13.1858 14.6628 11.0636 14.6628 9.33639C14.6628 6.02567 11.9728 3.34082 8.66204 3.34082Z" fill="black"/>
<path d="M2.00155 16.0007C0.905661 16.0007 0 16.9025 0 17.9984C0 19.0943 0.905661 20 2.00155 20H15.3266C16.4225 20 17.323 19.0943 17.323 17.9984C17.323 16.9025 16.4225 16.0007 15.3266 16.0007H2.00155Z" fill="black"/>
</svg>
