<svg width="24" height="15" viewBox="0 0 24 15" fill="none" xmlns="http://www.w3.org/2000/svg">
<path d="M8.72732 3.27273C8.72732 1.41819 10.1455 0 12.0001 0C13.8546 0 15.2728 1.41819 15.2728 3.27273C15.2728 5.12728 13.8546 6.54547 12.0001 6.54547C10.1455 6.54547 8.72732 5.12728 8.72732 3.27273ZM12.0001 8.72729C6.98187 8.72729 5.45459 12.3273 5.45459 12.3273V14.1819H18.5455V12.3273C18.5455 12.3273 17.0183 8.72729 12.0001 8.72729Z" fill="black"/>
<path d="M19.0909 5.45456C20.5972 5.45456 21.8182 4.23351 21.8182 2.72728C21.8182 1.22104 20.5972 0 19.0909 0C17.5847 0 16.3636 1.22104 16.3636 2.72728C16.3636 4.23351 17.5847 5.45456 19.0909 5.45456Z" fill="black"/>
<path d="M19.0909 7.63647C17.7818 7.63647 16.8 7.96375 16.0364 8.5092C18.5455 9.70921 19.5273 11.7819 19.5273 12.0001V12.1092H24V10.691C24 10.5819 22.8 7.63647 19.0909 7.63647Z" fill="black"/>
<path d="M19.0909 5.45456C20.5972 5.45456 21.8182 4.23351 21.8182 2.72728C21.8182 1.22104 20.5972 0 19.0909 0C17.5847 0 16.3636 1.22104 16.3636 2.72728C16.3636 4.23351 17.5847 5.45456 19.0909 5.45456Z" fill="black"/>
<path d="M19.0909 7.63647C17.7818 7.63647 16.8 7.96375 16.0364 8.5092C18.5455 9.70921 19.5273 11.7819 19.5273 12.0001V12.1092H24V10.691C24 10.5819 22.8 7.63647 19.0909 7.63647Z" fill="black"/>
<path d="M4.9091 5.45456C6.41534 5.45456 7.63638 4.23351 7.63638 2.72728C7.63638 1.22104 6.41534 0 4.9091 0C3.40287 0 2.18182 1.22104 2.18182 2.72728C2.18182 4.23351 3.40287 5.45456 4.9091 5.45456Z" fill="black"/>
<path d="M4.9091 7.63647C6.2182 7.63647 7.20002 7.96375 7.96365 8.5092C5.45456 9.70921 4.47274 11.7819 4.47274 12.0001V12.1092H0V10.691C0 10.5819 1.2 7.63647 4.9091 7.63647Z" fill="black"/>
</svg>
