<svg width="21" height="20" viewBox="0 0 21 20" fill="none" xmlns="http://www.w3.org/2000/svg">
<path d="M19.5127 17.1576L14.3248 11.9697C15.3588 10.3551 15.7598 8.41531 15.4508 6.523C15.1418 4.63069 14.1446 2.91926 12.6506 1.71738C11.1567 0.515502 9.27144 -0.0920792 7.35686 0.0113243C5.44228 0.114728 3.6334 0.921824 2.27761 2.27761C0.921824 3.6334 0.114728 5.44228 0.0113243 7.35686C-0.0920792 9.27144 0.515502 11.1567 1.71738 12.6506C2.91926 14.1446 4.63069 15.1418 6.523 15.4508C8.41531 15.7598 10.3551 15.3588 11.9697 14.3248L17.1576 19.5127C17.47 19.8247 17.8936 20 18.3351 20C18.7767 20 19.2002 19.8247 19.5127 19.5127C19.6685 19.3587 19.7923 19.1754 19.8767 18.9732C19.9612 18.7711 20.0046 18.5542 20.0046 18.3351C20.0046 18.1161 19.9612 17.8992 19.8767 17.697C19.7923 17.4949 19.6685 17.3115 19.5127 17.1576ZM2.22725 7.78169C2.22725 6.68312 2.55301 5.60923 3.16334 4.69581C3.77367 3.78238 4.64115 3.07045 5.6561 2.65005C6.67104 2.22965 7.78785 2.11965 8.86531 2.33397C9.94276 2.54829 10.9325 3.0773 11.7093 3.8541C12.4861 4.63091 13.0151 5.62061 13.2294 6.69807C13.4437 7.77553 13.3337 8.89234 12.9133 9.90728C12.4929 10.9222 11.781 11.7897 10.8676 12.4C9.95415 13.0104 8.88025 13.3361 7.78169 13.3361C6.30856 13.3361 4.89576 12.7509 3.8541 11.7093C2.81244 10.6676 2.22725 9.25482 2.22725 7.78169Z" fill="#373737" fill-opacity="0.6"/>
</svg>
