<svg width="23" height="24" viewBox="0 0 23 24" fill="none" xmlns="http://www.w3.org/2000/svg">
<path d="M21.4866 13.7451L21.0263 13.4846C20.4785 13.1751 20.1512 12.6197 20.1512 12C20.1512 11.3803 20.4785 10.8249 21.0263 10.5154L21.4866 10.2549C22.7432 9.54343 23.1728 7.97314 22.4474 6.74229L21.5723 5.25771C20.8486 4.02943 19.2394 3.60771 17.9863 4.31657L17.526 4.57629C16.9782 4.88657 16.3227 4.88657 15.7758 4.57629C15.228 4.266 14.9007 3.71143 14.9007 3.09171V2.57143C14.9007 1.15371 13.7229 0 12.2755 0H10.5254C9.07799 0 7.90013 1.15371 7.90013 2.57143V3.09257C7.90013 3.71229 7.57286 4.26686 7.02506 4.57714C6.47726 4.88657 5.8227 4.88743 5.27491 4.57714L4.81462 4.31657C3.56151 3.60771 1.95224 4.02943 1.22768 5.25771L0.352606 6.74229C-0.372832 7.97314 0.0568305 9.54429 1.31344 10.2549L1.7746 10.5154C2.3224 10.8249 2.64968 11.3803 2.64968 12C2.64968 12.6197 2.3224 13.1751 1.7746 13.4846L1.31431 13.7451C0.0577055 14.4557 -0.371957 16.0269 0.353481 17.2577L1.22856 18.7423C1.95312 19.9706 3.56238 20.3923 4.81462 19.6834L5.27491 19.4237C5.8227 19.1126 6.47726 19.1143 7.02506 19.4237C7.57286 19.734 7.90013 20.2886 7.90013 20.9083V21.4286C7.90013 22.8463 9.07799 24 10.5254 24H12.2755C13.7229 24 14.9007 22.8463 14.9007 21.4286V20.9074C14.9007 20.2877 15.228 19.7331 15.7758 19.4229C16.3227 19.1134 16.9782 19.1126 17.526 19.4229L17.9863 19.6834C19.2394 20.3914 20.8486 19.9697 21.5723 18.7423L22.4474 17.2577C23.1728 16.0269 22.7432 14.4557 21.4866 13.7451ZM11.4004 16.2857C8.98785 16.2857 7.02506 14.3631 7.02506 12C7.02506 9.63686 8.98785 7.71429 11.4004 7.71429C13.813 7.71429 15.7758 9.63686 15.7758 12C15.7758 14.3631 13.813 16.2857 11.4004 16.2857Z" fill="#71A901"/>
</svg>
